<mxfile host="app.diagrams.net" agent="Mozilla/5.0 (X11; Linux x86_64; rv:132.0) Gecko/20100101 Firefox/132.0" version="24.8.4">
  <diagram name="Page-1" id="I1ZIUi8mSxsxoO9wPNZH">
    <mxGraphModel dx="2049" dy="1111" grid="1" gridSize="10" guides="1" tooltips="1" connect="1" arrows="1" fold="1" page="1" pageScale="1" pageWidth="1000" pageHeight="1000" math="0" shadow="0">
      <root>
        <mxCell id="0" />
        <mxCell id="1" parent="0" />
        <mxCell id="vielIPxmUZmTdx7i_PGs-2" value="Start" style="ellipse;whiteSpace=wrap;html=1;" vertex="1" parent="1">
          <mxGeometry x="440" width="120" height="80" as="geometry" />
        </mxCell>
        <mxCell id="vielIPxmUZmTdx7i_PGs-17" value="End" style="ellipse;whiteSpace=wrap;html=1;" vertex="1" parent="1">
          <mxGeometry x="440" y="860" width="120" height="80" as="geometry" />
        </mxCell>
        <mxCell id="vielIPxmUZmTdx7i_PGs-31" value="enter n, m" style="shape=parallelogram;perimeter=parallelogramPerimeter;whiteSpace=wrap;html=1;fixedSize=1;" vertex="1" parent="1">
          <mxGeometry x="440" y="140" width="120" height="60" as="geometry" />
        </mxCell>
        <mxCell id="vielIPxmUZmTdx7i_PGs-32" value="" style="endArrow=classic;html=1;rounded=0;exitX=0.5;exitY=1;exitDx=0;exitDy=0;entryX=0.5;entryY=0;entryDx=0;entryDy=0;" edge="1" parent="1" source="vielIPxmUZmTdx7i_PGs-2" target="vielIPxmUZmTdx7i_PGs-31">
          <mxGeometry width="50" height="50" relative="1" as="geometry">
            <mxPoint x="520" y="130" as="sourcePoint" />
            <mxPoint x="570" y="80" as="targetPoint" />
          </mxGeometry>
        </mxCell>
        <mxCell id="vielIPxmUZmTdx7i_PGs-33" value="" style="endArrow=classic;html=1;rounded=0;exitX=0.5;exitY=1;exitDx=0;exitDy=0;entryX=0.5;entryY=0;entryDx=0;entryDy=0;" edge="1" parent="1" source="vielIPxmUZmTdx7i_PGs-31" target="vielIPxmUZmTdx7i_PGs-34">
          <mxGeometry width="50" height="50" relative="1" as="geometry">
            <mxPoint x="600" y="250" as="sourcePoint" />
            <mxPoint x="500" y="260" as="targetPoint" />
          </mxGeometry>
        </mxCell>
        <mxCell id="vielIPxmUZmTdx7i_PGs-34" value="&lt;div&gt;add 1 to n and m&lt;br&gt;&lt;/div&gt;" style="rounded=1;whiteSpace=wrap;html=1;" vertex="1" parent="1">
          <mxGeometry x="440" y="260" width="120" height="60" as="geometry" />
        </mxCell>
        <mxCell id="vielIPxmUZmTdx7i_PGs-35" value="" style="endArrow=classic;html=1;rounded=0;exitX=0.5;exitY=1;exitDx=0;exitDy=0;" edge="1" parent="1" source="vielIPxmUZmTdx7i_PGs-34">
          <mxGeometry width="50" height="50" relative="1" as="geometry">
            <mxPoint x="520" y="390" as="sourcePoint" />
            <mxPoint x="500" y="380" as="targetPoint" />
          </mxGeometry>
        </mxCell>
        <mxCell id="vielIPxmUZmTdx7i_PGs-40" value="" style="endArrow=classic;html=1;rounded=0;exitX=0.5;exitY=1;exitDx=0;exitDy=0;" edge="1" parent="1">
          <mxGeometry width="50" height="50" relative="1" as="geometry">
            <mxPoint x="499.9999999999998" y="440" as="sourcePoint" />
            <mxPoint x="500" y="500" as="targetPoint" />
          </mxGeometry>
        </mxCell>
        <mxCell id="vielIPxmUZmTdx7i_PGs-42" value="calculate if m is smaller than n" style="rounded=1;whiteSpace=wrap;html=1;" vertex="1" parent="1">
          <mxGeometry x="440" y="500" width="120" height="60" as="geometry" />
        </mxCell>
        <mxCell id="vielIPxmUZmTdx7i_PGs-44" value="output n*m" style="shape=parallelogram;perimeter=parallelogramPerimeter;whiteSpace=wrap;html=1;fixedSize=1;" vertex="1" parent="1">
          <mxGeometry x="440" y="380" width="120" height="60" as="geometry" />
        </mxCell>
        <mxCell id="vielIPxmUZmTdx7i_PGs-45" value="" style="endArrow=classic;html=1;rounded=0;exitX=0.5;exitY=1;exitDx=0;exitDy=0;" edge="1" parent="1" source="vielIPxmUZmTdx7i_PGs-42">
          <mxGeometry width="50" height="50" relative="1" as="geometry">
            <mxPoint x="500" y="640" as="sourcePoint" />
            <mxPoint x="500" y="620" as="targetPoint" />
          </mxGeometry>
        </mxCell>
        <mxCell id="vielIPxmUZmTdx7i_PGs-46" value="add 1 to m" style="rounded=1;whiteSpace=wrap;html=1;" vertex="1" parent="1">
          <mxGeometry x="440" y="620" width="120" height="60" as="geometry" />
        </mxCell>
        <mxCell id="vielIPxmUZmTdx7i_PGs-48" value="output the comparison result" style="shape=parallelogram;perimeter=parallelogramPerimeter;whiteSpace=wrap;html=1;fixedSize=1;" vertex="1" parent="1">
          <mxGeometry x="420" y="740" width="160" height="60" as="geometry" />
        </mxCell>
        <mxCell id="vielIPxmUZmTdx7i_PGs-49" value="" style="endArrow=classic;html=1;rounded=0;exitX=0.5;exitY=1;exitDx=0;exitDy=0;entryX=0.5;entryY=0;entryDx=0;entryDy=0;" edge="1" parent="1" source="vielIPxmUZmTdx7i_PGs-46" target="vielIPxmUZmTdx7i_PGs-48">
          <mxGeometry width="50" height="50" relative="1" as="geometry">
            <mxPoint x="630" y="700" as="sourcePoint" />
            <mxPoint x="680" y="650" as="targetPoint" />
          </mxGeometry>
        </mxCell>
        <mxCell id="vielIPxmUZmTdx7i_PGs-50" value="calculate if n is bigger than m" style="rounded=1;whiteSpace=wrap;html=1;" vertex="1" parent="1">
          <mxGeometry x="640" y="500" width="120" height="60" as="geometry" />
        </mxCell>
        <mxCell id="vielIPxmUZmTdx7i_PGs-51" value="" style="endArrow=classic;html=1;rounded=0;exitX=0.5;exitY=1;exitDx=0;exitDy=0;" edge="1" parent="1" source="vielIPxmUZmTdx7i_PGs-50">
          <mxGeometry width="50" height="50" relative="1" as="geometry">
            <mxPoint x="700" y="640" as="sourcePoint" />
            <mxPoint x="700" y="620" as="targetPoint" />
          </mxGeometry>
        </mxCell>
        <mxCell id="vielIPxmUZmTdx7i_PGs-52" value="add 1 to n" style="rounded=1;whiteSpace=wrap;html=1;" vertex="1" parent="1">
          <mxGeometry x="640" y="620" width="120" height="60" as="geometry" />
        </mxCell>
        <mxCell id="vielIPxmUZmTdx7i_PGs-53" value="output the comparison result" style="shape=parallelogram;perimeter=parallelogramPerimeter;whiteSpace=wrap;html=1;fixedSize=1;" vertex="1" parent="1">
          <mxGeometry x="620" y="740" width="160" height="60" as="geometry" />
        </mxCell>
        <mxCell id="vielIPxmUZmTdx7i_PGs-54" value="" style="endArrow=classic;html=1;rounded=0;exitX=0.5;exitY=1;exitDx=0;exitDy=0;entryX=0.5;entryY=0;entryDx=0;entryDy=0;" edge="1" parent="1" source="vielIPxmUZmTdx7i_PGs-52" target="vielIPxmUZmTdx7i_PGs-53">
          <mxGeometry width="50" height="50" relative="1" as="geometry">
            <mxPoint x="830" y="700" as="sourcePoint" />
            <mxPoint x="880" y="650" as="targetPoint" />
          </mxGeometry>
        </mxCell>
        <mxCell id="vielIPxmUZmTdx7i_PGs-55" value="" style="endArrow=classic;html=1;rounded=0;exitX=0.5;exitY=1;exitDx=0;exitDy=0;entryX=0.5;entryY=0;entryDx=0;entryDy=0;" edge="1" parent="1" source="vielIPxmUZmTdx7i_PGs-48" target="vielIPxmUZmTdx7i_PGs-50">
          <mxGeometry width="50" height="50" relative="1" as="geometry">
            <mxPoint x="520" y="860" as="sourcePoint" />
            <mxPoint x="570" y="810" as="targetPoint" />
            <Array as="points">
              <mxPoint x="500" y="840" />
              <mxPoint x="600" y="840" />
              <mxPoint x="600" y="440" />
              <mxPoint x="700" y="440" />
            </Array>
          </mxGeometry>
        </mxCell>
        <mxCell id="vielIPxmUZmTdx7i_PGs-56" value="" style="endArrow=classic;html=1;rounded=0;exitX=0.5;exitY=1;exitDx=0;exitDy=0;entryX=1;entryY=0.5;entryDx=0;entryDy=0;" edge="1" parent="1" source="vielIPxmUZmTdx7i_PGs-53" target="vielIPxmUZmTdx7i_PGs-17">
          <mxGeometry width="50" height="50" relative="1" as="geometry">
            <mxPoint x="720" y="870" as="sourcePoint" />
            <mxPoint x="770" y="820" as="targetPoint" />
            <Array as="points">
              <mxPoint x="700" y="900" />
            </Array>
          </mxGeometry>
        </mxCell>
      </root>
    </mxGraphModel>
  </diagram>
</mxfile>
